HIERARCHY
ROOT RootJoint
{
    OFFSET   0.000000   0.000000   0.000000
    CHANNELS 6 Xposition Yposition Zposition Xrotation Yrotation Zrotation
    JOINT pelvis_lowerback
    {
        OFFSET   0.000000   0.093605   0.000000
        CHANNELS 3 Xrotation Yrotation Zrotation
        JOINT lowerback_torso
        {
            OFFSET   0.000000   0.100000   0.000000
            CHANNELS 3 Xrotation Yrotation Zrotation
            JOINT torso_head
            {
                OFFSET   0.000000   0.282350   0.000000
                CHANNELS 3 Xrotation Yrotation Zrotation
                End Site
                {
                    OFFSET   0.000000   0.192650   0.000000
                }
            }
            JOINT rTorso_Clavicle
            {
                OFFSET  -0.001000   0.157500   0.000000
                CHANNELS 3 Xrotation Yrotation Zrotation
                JOINT rShoulder
                {
                    OFFSET  -0.117647   0.000000   0.000000
                    CHANNELS 3 Xrotation Yrotation Zrotation
                    JOINT rElbow
                    {
                        OFFSET  -0.245000   0.000000   0.000000
                        CHANNELS 3 Xrotation Yrotation Zrotation
                        JOINT rWrist
                        {
                            OFFSET  -0.240000   0.000000   0.000000
                            CHANNELS 3 Xrotation Yrotation Zrotation
                            End Site
                            {
                                OFFSET  -0.116353  -0.002500   0.000000
                            }
                        }
                    }
                }
            }
            JOINT lTorso_Clavicle
            {
                OFFSET   0.001000   0.157500   0.000000
                CHANNELS 3 Xrotation Yrotation Zrotation
                JOINT lShoulder
                {
                    OFFSET   0.117647   0.000000   0.000000
                    CHANNELS 3 Xrotation Yrotation Zrotation
                    JOINT lElbow
                    {
                        OFFSET   0.245000   0.000000   0.000000
                        CHANNELS 3 Xrotation Yrotation Zrotation
                        JOINT lWrist
                        {
                            OFFSET   0.240000   0.000000   0.000000
                            CHANNELS 3 Xrotation Yrotation Zrotation
                            End Site
                            {
                                OFFSET   0.116353  -0.002500   0.000000
                            }
                        }
                    }
                }
            }
        }
    }
    JOINT rHip
    {
        OFFSET  -0.100000  -0.051395   0.000000
        CHANNELS 3 Xrotation Yrotation Zrotation
        JOINT rKnee
        {
            OFFSET   0.000000  -0.410000   0.000000
            CHANNELS 3 Xrotation Yrotation Zrotation
            JOINT rAnkle
            {
                OFFSET   0.000000  -0.390000   0.000000
                CHANNELS 3 Xrotation Yrotation Zrotation
                JOINT rToeJoint
                {
                    OFFSET   0.000000  -0.050000   0.130000
                    CHANNELS 3 Xrotation Yrotation Zrotation
                    End Site
                    {
                        OFFSET  -0.010000   0.002000   0.060000
                    }
                }
            }
        }
    }
    JOINT lHip
    {
        OFFSET   0.100000  -0.051395   0.000000
        CHANNELS 3 Xrotation Yrotation Zrotation
        JOINT lKnee
        {
            OFFSET   0.000000  -0.410000   0.000000
            CHANNELS 3 Xrotation Yrotation Zrotation
            JOINT lAnkle
            {
                OFFSET   0.000000  -0.390000   0.000000
                CHANNELS 3 Xrotation Yrotation Zrotation
                JOINT lToeJoint
                {
                    OFFSET   0.000000  -0.050000   0.130000
                    CHANNELS 3 Xrotation Yrotation Zrotation
                    End Site
                    {
                        OFFSET   0.010000   0.002000   0.060000
                    }
                }
            }
        }
    }
}
MOTION
Frames: 11
Frame Time:   0.008333
 -2.376719   0.925631   3.975860   0.000000   0.000000   0.000000   0.000000   0.000000   0.000000   0.000000   0.000000   0.000000   0.000000   0.000000   0.000000   0.000000   0.000000   0.000000   0.000000   0.000000   0.000000   0.000000   0.000000   0.000000   0.000000   0.000000   0.000000   0.000000   0.000000   0.000000   0.000000   0.000000   0.000000   0.000000   0.000000   0.000000   0.000000   0.000000   0.000000   0.000000   0.000000   0.000000   0.000000   0.000000   0.000000   0.000000   0.000000   0.000000   0.000000   0.000000   0.000000   0.000000   0.000000   0.000000   0.000000   0.000000   0.000000   0.000000   0.000000   0.000000   0.000000   0.000000   0.000000
 -2.376633   0.925853   3.975332  -0.005715   0.151742  -0.093940   0.047901   0.003139   0.103262   0.206828  -0.177051   0.051729  -0.258502   0.006298   0.040276   0.117667  -0.161728   0.129718   0.197920  -0.032994   1.703152   0.007799   0.471508  -0.002342   0.265718  -0.037051  -2.171687   0.115044   0.191485  -0.409415   0.829956   0.095858  -1.519038   0.010312  -0.630384   0.006604   0.349798  -0.034947   2.093462  -0.411610   0.090569  -0.158530   1.255793   0.002793   0.002622  -1.113742  -0.344810  -0.065326  -0.229398  -0.000630   0.000200  -0.636127  -0.225849   0.353665   1.772412  -0.004066  -0.001045  -1.378579   0.032245   0.038400   0.233240  -0.000609  -0.000085
 -2.376516   0.926202   3.974923  -0.079384   0.301890  -0.201249   0.131052   0.010057   0.223025   0.476738  -0.355835   0.121048  -0.482372   0.011238   0.091469   0.234617  -0.339290   0.844212   0.386478  -0.069296   3.759902   0.017415   0.919080  -0.004144   0.549136   0.028644  -3.730690   0.236301   0.388673  -1.416199   1.615060   0.170252  -3.420992   0.023218  -1.229914   0.011489   0.738810  -0.209471   3.565277  -0.750496   0.182339  -0.520053   2.577862   0.007786   0.004628  -2.152911  -0.670406  -0.134175  -0.487976  -0.001713   0.000337  -1.203462  -0.441648   0.925640   3.623508  -0.010919  -0.001274  -2.660599   0.065471   0.076789   0.417597  -0.001307  -0.000102
 -2.376375   0.926330   3.974640  -0.155104   0.438149  -0.306303   0.207535   0.016709   0.343618   0.742756  -0.524503   0.194266  -0.682309   0.015787   0.143533   0.347323  -0.513241   1.931053   0.564080  -0.103339   5.993295   0.026350   1.334860  -0.005275   0.824565   0.103736  -4.608431   0.354293   0.577311  -2.784157   2.350344   0.216720  -5.516982   0.035289  -1.788337   0.014609   1.117575  -0.403747   4.347722  -1.050586   0.267992  -1.060149   3.838048   0.013538   0.005539  -3.121643  -0.976039  -0.205311  -0.726489  -0.002863   0.000432  -1.717634  -0.645278   1.660619   5.381167  -0.018594  -0.000728  -3.855182   0.099071   0.114905   0.588874  -0.002058  -0.000087
 -2.376220   0.925993   3.974463  -0.219591   0.558315  -0.406235   0.273282   0.022945   0.461013   0.989192  -0.682010   0.267339  -0.866537   0.019890   0.193529   0.456340  -0.678938   3.235562   0.731766  -0.132380   8.293748   0.033593   1.721107  -0.005874   1.088473   0.174390  -4.980654   0.469049   0.755439  -4.353023   3.038375   0.233570  -7.691253   0.045135  -2.308774   0.016386   1.480726  -0.599766   4.624168  -1.324068   0.349262  -1.745631   5.019774   0.019164   0.005548  -4.026209  -1.262655  -0.277844  -0.948772  -0.003960   0.000503  -2.189639  -0.840772   2.522524   7.026860  -0.026001   0.000363  -4.970352   0.132278   0.152513   0.742073  -0.002732  -0.000055
 -2.376057   0.925015   3.974377  -0.272130   0.662494  -0.500664   0.328999   0.028946   0.573866   1.214550  -0.828578   0.338944  -1.037616   0.023543   0.240647   0.562067  -0.835890   4.651178   0.890233  -0.156254  10.587651   0.038835   2.080025  -0.006083   1.340384   0.239482  -5.010950   0.580726   0.923562  -6.015178   3.681320   0.223083  -9.867429   0.052320  -2.794192   0.017181   1.827398  -0.795291   4.562460  -1.574601   0.428206  -2.545410   6.124586   0.024171   0.004924  -4.871123  -1.531054  -0.350937  -1.155512  -0.004921   0.000552  -2.623661  -1.031099   3.481984   8.564394  -0.032546   0.001779  -6.011607   0.164550   0.189422   0.878913  -0.003279  -0.000018
 -2.375889   0.923277   3.974366  -0.314459   0.751719  -0.589660   0.375918   0.034750   0.681668   1.420320  -0.964794   0.408509  -1.196699   0.026777   0.284738   0.664827  -0.985018   6.105639   1.040018  -0.175930  12.827103   0.042133   2.413473  -0.006013   1.580450   0.298783  -4.821419   0.689494   1.082967  -7.698783   4.281229   0.189482 -11.996176   0.056906  -3.246987   0.017273   2.157596  -0.989065   4.286291  -1.804007   0.506264  -3.432150   7.156987   0.028311   0.003906  -5.660342  -1.782059  -0.423881  -1.346930  -0.005698   0.000582  -3.022131  -1.218117   4.513664  10.000638  -0.037933   0.003338  -6.983771   0.195508   0.225466   1.001893  -0.003689   0.000019
 -2.375794   0.920231   3.974148  -0.280731   0.745437  -0.655156   0.494998   0.087203   0.750857   1.465145  -1.039792   0.449339  -1.456082   0.008751   0.301990   0.833452  -1.084044   7.137797   1.319869  -0.121856  14.830957   0.039610   2.630933  -0.005912   1.800144   0.360640  -3.853375   0.854252   1.185366  -8.660541   4.714686   0.122257 -14.094209   0.054173  -3.567171   0.015951   2.467593  -1.278061   3.109382  -2.056158   0.404812  -4.286455   7.754675   0.027369   0.001606  -5.918103  -2.119712  -0.401201  -1.396956  -0.004957   0.000662  -3.366744  -1.249882   5.476099  10.910477  -0.037361   0.004483  -7.794778   0.353846   0.120910   1.123371  -0.003793   0.000252
 -2.375730   0.916064   3.973756  -0.221966   0.707970  -0.716185   0.634054   0.148633   0.807474   1.496801  -1.094190   0.486586  -1.714755  -0.008504   0.308618   0.985961  -1.147168   7.919956   1.574970  -0.047755  16.573728   0.036344   2.836954  -0.005764   2.014349   0.417117  -3.004687   1.004113   1.266625  -9.335176   5.114156   0.049171 -15.901702   0.049876  -3.863447   0.014675   2.755116  -1.543280   2.051287  -2.343040   0.302527  -5.085635   8.244161   0.025463  -0.000103  -6.157196  -2.437929  -0.382114  -1.411451  -0.004074   0.000590  -3.722468  -1.281965   6.376792  11.688400  -0.035499   0.004960  -8.555521   0.504393   0.025967   1.229754  -0.003726   0.000378
 -2.375661   0.914354   3.973544  -0.309075   0.867309  -0.410158   0.875779   0.131579   0.562434   1.593501  -1.204238   0.404982  -1.951487  -0.027473   0.303384   1.127388  -1.199900   8.773430   1.809085   0.029455  18.223120   0.033236   3.027255  -0.005592   2.217707   0.451141  -2.379294   1.125632   1.293003  -9.995837   5.474096  -0.057407 -17.537362   0.045791  -4.143924   0.013446   3.028064  -1.782710   1.302860  -2.425423   0.192915  -6.136400   8.681474   0.023175  -0.000609  -6.372491  -2.739588  -0.368261  -1.355508  -0.002899   0.000331  -4.404160  -0.990130   6.151511  13.029504  -0.028212   0.010843  -8.780094   0.831227  -0.457130   1.385690  -0.002410   0.001452
 -2.376268   0.913506   3.973603  -0.383372   0.789351  -0.469765   1.059261   0.225785   0.604044   1.683928  -1.227289   0.431145  -2.162834  -0.040819   0.297132   1.252821  -1.226716   9.475470   2.020929   0.123540  19.721040   0.030199   3.211998  -0.005280   2.416538   0.516942  -1.778768   1.251315   1.352517 -10.556477   5.813765  -0.144540 -19.054150   0.041476  -4.402437   0.012161   3.287154  -2.014555   0.588417  -2.617975   0.099905  -6.398851   9.193939   0.019843  -0.001781  -6.596371  -2.978649  -0.194690  -1.314635  -0.002263   0.000106  -4.805853  -0.971312   6.278034  14.052429  -0.022979   0.009269  -9.299500   0.921225  -0.617457   1.323169  -0.001982   0.001107
